<svg width="801" height="367" viewBox="0 0 801 367" fill="none" xmlns="http://www.w3.org/2000/svg">
<path d="M634.313 154.062C633.473 150.83 630.555 148.574 627.216 148.574L463.266 141.826C458.778 141.642 454.993 138.422 454.091 134.021L442.519 77.548C441.433 71.32 436.027 66.776 429.706 66.776L196.956 55.625C179.129 55.625 164.193 69.112 162.381 86.846L156.823 143.708C147.783 143.957 140.285 150.879 139.371 159.929L125.937 271.987H512.425L542.545 225.035C566.464 184.727 605.917 192.889 605.917 192.889C618.308 195.092 628.377 199.29 636.565 204.534L634.313 154.062Z" fill="#7D8F69"/>
<path d="M300.698 287.844H134.788C134.056 287.844 133.463 287.248 133.463 286.516V282.13C133.463 281.399 134.056 280.804 134.788 280.804H300.698C301.431 280.804 302.025 281.399 302.025 282.13V286.516C302.025 287.248 301.431 287.844 300.698 287.844Z" fill="#33333B"/>
<path d="M397.127 290.316H191.628C188.839 290.316 186.578 288.054 186.578 285.266V274.52C186.578 271.731 188.839 269.47 191.628 269.47H397.127C399.916 269.47 402.178 271.731 402.178 274.52V285.266C402.178 288.054 399.916 290.316 397.127 290.316Z" fill="#002532"/>
<path d="M360.276 167.974C359.41 168.291 358.472 168.351 357.55 168.408C352.435 168.719 347.325 169.036 342.217 169.432C338.444 169.724 334.672 170.016 330.899 170.308C329.187 170.441 327.752 168.352 327.752 165.729C327.752 163.197 329.093 161.145 330.747 161.145H343.619H352.986H356.766C358.149 161.145 359.851 160.941 361.099 161.678C363.522 163.108 362.806 166.986 360.368 167.939C360.338 167.951 360.306 167.963 360.276 167.974Z" fill="#404040"/>
<path d="M357.557 164.613C356.846 164.792 356.075 164.827 355.318 164.859C351.117 165.035 346.92 165.215 342.725 165.44C339.626 165.606 336.528 165.771 333.429 165.937C332.024 166.012 330.845 164.828 330.845 163.341C330.845 161.905 331.946 160.741 333.305 160.741H343.876H351.57H354.674C355.81 160.741 357.208 160.625 358.233 161.043C360.223 161.855 359.636 164.051 357.633 164.592C357.608 164.599 357.582 164.606 357.557 164.613Z" fill="#D0D1D3"/>
<path d="M337.784 164.626C337.784 167.11 335.77 169.125 333.285 169.125C330.801 169.125 328.786 167.11 328.786 164.626C328.786 162.141 330.801 160.127 333.285 160.127C335.77 160.127 337.784 162.141 337.784 164.626Z" fill="#F1F1F1"/>
<path d="M523.87 278.096H661.98L658.704 242.192L628.897 204.997L562.862 198.464L523.87 231.639V278.096Z" fill="#343334"/>
<path d="M154.114 278.096H292.224L288.948 242.192L259.141 204.997L193.106 198.464L154.114 231.639V278.096Z" fill="#343334"/>
<path d="M683.633 281.081L660.572 284.021C658.492 284.021 656.806 282.335 656.806 280.255V258.373C656.806 256.293 658.492 254.606 660.572 254.606H683.633C685.713 254.606 687.4 256.293 687.4 258.373V277.313C687.4 279.393 685.713 281.081 683.633 281.081Z" fill="#D0D1D3"/>
<path d="M656.807 272.171V280.254C656.807 282.334 658.494 284.021 660.574 284.021L683.633 281.08C685.714 281.08 687.4 279.394 687.4 277.314V272.171H656.807Z" fill="#404040"/>
<path d="M618.5 183.442H618.499L616.788 184.431C612.802 186.733 612.802 192.487 616.788 194.789L631.762 203.434L649.548 213.703C652.285 215.283 655.707 213.308 655.707 210.147V189.61V172.356C655.707 171.01 654.554 169.957 653.214 170.077C641.225 171.146 625.778 179.315 620.431 182.327L618.5 183.442Z" fill="#BABDBE"/>
<path d="M648.394 213.036L649.548 213.703C652.286 215.283 655.706 213.307 655.706 210.146V189.61V172.356C655.706 171.013 654.557 169.957 653.219 170.077C651.66 170.215 650.041 170.474 648.394 170.827V213.036Z" fill="#D0D1D3"/>
<path d="M472.302 178.961H476.776V156.437H472.302V178.961ZM0.684998 -50.326H800.685V449.674H0.684998V-50.326ZM0.684998 449.674H800.685V-50.326H0.684998V449.674Z" fill="#404040"/>
<path d="M480.172 157.484V177.914C480.172 178.492 479.703 178.962 479.125 178.962H476.776V156.437H479.125C479.703 156.437 480.172 156.906 480.172 157.484Z" fill="white"/>
<path d="M486.218 178.961H490.693V156.437H486.218V178.961ZM0.684998 -50.326H800.685V449.674H0.684998V-50.326ZM0.684998 449.674H800.685V-50.326H0.684998V449.674Z" fill="#404040"/>
<path d="M494.087 157.484V177.914C494.087 178.492 493.618 178.962 493.04 178.962H490.692V156.437H493.04C493.618 156.437 494.087 156.906 494.087 157.484Z" fill="white"/>
<path d="M500.135 178.961H504.609V156.437H500.135V178.961ZM0.684998 -50.326H800.685V449.674H0.684998V-50.326ZM0.684998 449.674H800.685V-50.326H0.684998V449.674Z" fill="#404040"/>
<path d="M508.005 157.484V177.914C508.005 178.492 507.536 178.962 506.958 178.962H504.61V156.437H506.958C507.536 156.437 508.005 156.906 508.005 157.484Z" fill="white"/>
<path d="M514.143 178.961H518.617V156.437H514.143V178.961ZM0.684998 -50.326H800.685V449.674H0.684998V-50.326ZM0.684998 449.674H800.685V-50.326H0.684998V449.674Z" fill="#404040"/>
<path d="M522.013 157.484V177.914C522.013 178.492 521.544 178.962 520.966 178.962H518.617V156.437H520.966C521.544 156.437 522.013 156.906 522.013 157.484Z" fill="white"/>
<path d="M139.371 159.928L125.937 271.986H145.489L156.824 143.708C147.783 143.957 140.286 150.878 139.371 159.928Z" fill="#404040"/>
<path d="M436.927 129.776L427.896 82.126C427.498 80.028 425.71 78.48 423.576 78.384L330.431 74.219C327.809 74.102 325.62 76.195 325.62 78.819V137.13C325.62 139.672 327.682 141.734 330.225 141.734H427.023C433.343 141.734 438.104 135.986 436.927 129.776Z" fill="#3C3337"/>
<path d="M223.272 141.734H307.275C310.178 141.734 312.53 139.381 312.53 136.48V79.256C312.53 76.355 310.178 74.004 307.275 74.004H216.326C213.424 74.004 211.072 76.355 211.072 79.256V129.535C211.072 136.273 216.535 141.734 223.272 141.734Z" fill="#3C3337"/>
<path d="M448.076 140.074L434.151 78.54C433.333 74.927 430.178 72.275 426.479 72.09L327.513 67.147C325.226 67.037 323.047 67.84 321.386 69.421C319.724 71.002 318.81 73.134 318.81 75.427V245.939C318.81 250.51 322.529 254.229 327.1 254.229H439.991C444.562 254.229 448.281 250.51 448.281 245.939V141.903C448.281 141.289 448.212 140.673 448.076 140.074ZM445.803 245.939C445.803 249.143 443.196 251.751 439.991 251.751H327.1C323.895 251.751 321.288 249.143 321.288 245.939V75.427C321.288 73.82 321.929 72.325 323.094 71.216C324.186 70.177 325.596 69.614 327.091 69.614C327.19 69.614 327.29 69.617 327.39 69.622L426.356 74.565C428.949 74.694 431.16 76.554 431.734 79.087L445.659 140.621C445.755 141.041 445.803 141.473 445.803 141.903V245.939Z" fill="#404040"/>
<path d="M436.926 129.777L427.895 82.126C427.498 80.028 425.71 78.48 423.576 78.384L330.43 74.219C330.36 74.216 330.29 74.214 330.221 74.214C327.693 74.214 325.619 76.265 325.619 78.819V137.13C325.619 139.674 327.681 141.734 330.225 141.734H427.022C433.342 141.734 438.103 135.987 436.926 129.777ZM432.4 136.108C431.069 137.715 429.109 138.638 427.022 138.638H330.225C329.393 138.638 328.717 137.962 328.717 137.13V78.819C328.717 77.987 329.391 77.311 330.221 77.311C330.244 77.311 330.268 77.313 330.292 77.314L423.438 81.479C424.139 81.51 424.721 82.013 424.852 82.703L433.883 130.354C434.272 132.404 433.731 134.501 432.4 136.108Z" fill="#404040"/>
<path d="M306.829 74.003H216.774C213.625 74.003 211.073 76.556 211.073 79.704V128.497C211.073 135.808 217 141.735 224.311 141.735H306.829C309.978 141.735 312.531 139.182 312.531 136.033V79.704C312.531 76.556 309.978 74.003 306.829 74.003ZM309.433 136.033C309.433 137.469 308.265 138.637 306.829 138.637H224.311C218.72 138.637 214.17 134.089 214.17 128.497V79.704C214.17 78.269 215.338 77.101 216.774 77.101H306.829C308.265 77.101 309.433 78.269 309.433 79.704V136.033Z" fill="#404040"/>
<path d="M133.679 207.172L125.936 271.758H512.425L542.545 224.806C546.933 217.411 551.844 211.653 556.938 207.172H133.679Z" fill="#404040"/>
<path d="M167.362 208.614H157.017C154.623 208.614 152.683 210.554 152.683 212.948V236.128L167.362 208.614Z" fill="#B42032"/>
<path d="M154.294 214.282C154.294 211.888 156.234 209.948 158.628 209.948H166.649L167.36 208.614H157.015C154.622 208.614 152.681 210.554 152.681 212.948V236.128L154.294 233.104V214.282Z" fill="#404040"/>
<path d="M200.17 201.206H203.461V151.323H200.17V201.206ZM0.684998 -50.326H800.685V449.674H0.684998V-50.326ZM0.684998 449.674H800.685V-50.326H0.684998V449.674Z" fill="#404040"/>
<path d="M443.752 269.774C443.752 269.774 483.162 268.297 501.768 239.653C510.015 226.955 518.272 215.107 529.879 205.073C553.374 184.761 584.992 176.641 614.437 188.128C634.378 195.908 649.801 211.384 658.28 230.981C662.738 241.284 665.332 252.319 666.663 263.446C666.769 264.326 666.019 265.084 665.14 264.971C662.476 264.632 657.399 263.065 655.132 256.19C649.603 239.428 638.021 224.645 622.127 216.594C599.228 204.995 570.162 207.955 550.549 224.664C537.695 235.613 530.9 251.523 528.64 268.003C528.64 268.003 527.754 282.325 511.955 282.325H294.993C294.993 282.325 288.216 281.488 288.216 274.253C288.216 267.512 286.453 260.434 284.386 254.084C279.925 240.37 271.624 227.91 259.455 219.908C241.384 208.027 218.908 206.574 199.11 214.673C182.622 221.42 169.565 234.148 162.785 250.68C160.951 255.15 159.571 259.798 158.573 264.524C157.604 269.115 153.239 272.214 148.603 271.484C148.53 271.472 148.457 271.461 148.383 271.448C148.383 271.448 135.73 269.448 124.646 265.774C122.864 265.183 121.304 264.004 120.392 262.363C118.565 259.076 121.272 258.002 123.875 257.627C130.042 256.74 135.385 251.606 139.373 247.145C144.022 241.946 147.681 235.964 151.262 230.007C159.425 216.431 170.341 201.974 184.241 193.63C199.141 184.686 217.388 180.783 234.686 181.378C267.047 182.491 291.694 207.245 304.564 235.269C308.355 243.526 311.218 252.192 313.366 261.013C313.366 261.013 314.843 269.283 319.667 269.283L443.752 269.774Z" fill="#322F31"/>
<path d="M446.846 284.281H320.157C319.412 284.281 318.81 283.677 318.81 282.933V268.935C318.81 268.191 319.412 267.589 320.157 267.589H446.846C447.59 267.589 448.192 268.191 448.192 268.935V282.933C448.192 283.677 447.59 284.281 446.846 284.281Z" fill="#D0D1D3"/>
<path d="M318.809 278.472V282.546C318.809 283.504 319.585 284.282 320.543 284.282H446.456C447.414 284.282 448.191 283.504 448.191 282.546V278.472H318.809Z" fill="#404040"/>
<path d="M318.809 275.935H448.192V273.838H318.809V275.935ZM0.684998 -50.326H800.685V449.674H0.684998V-50.326ZM0.684998 449.674H800.685V-50.326H0.684998V449.674Z" fill="#404040"/>
<path d="M318.809 271.707H448.192V269.61H318.809V271.707ZM0.684998 -50.326H800.685V449.674H0.684998V-50.326ZM0.684998 449.674H800.685V-50.326H0.684998V449.674Z" fill="#404040"/>
<path d="M154.936 284.02L121.678 278.762C119.598 278.762 117.911 277.076 117.911 274.996V258.373C117.911 256.292 119.598 254.606 121.678 254.606H154.936C157.016 254.606 158.703 256.292 158.703 258.373V280.254C158.703 282.334 157.016 284.02 154.936 284.02Z" fill="#D0D1D3"/>
<path d="M117.911 272.171V274.995C117.911 277.075 119.598 278.763 121.678 278.763L154.936 284.021C157.016 284.021 158.703 282.334 158.703 280.254V272.171H117.911Z" fill="#404040"/>
<path d="M283.725 259.148C283.725 291.138 257.799 317.068 225.806 317.068C193.819 317.068 167.886 291.138 167.886 259.148C167.886 227.163 193.819 201.226 225.806 201.226C257.799 201.226 283.725 227.163 283.725 259.148Z" fill="#404040"/>
<g style="mix-blend-mode:multiply" opacity="0.21">
<path d="M269.787 259.148C269.787 283.44 250.099 303.129 225.806 303.129C201.517 303.129 181.825 283.44 181.825 259.148C181.825 234.861 201.517 215.166 225.806 215.166C250.099 215.166 269.787 234.861 269.787 259.148Z" fill="#404040"/>
</g>
<path d="M264.998 259.148C264.998 280.795 247.455 298.34 225.806 298.34C204.161 298.34 186.614 280.795 186.614 259.148C186.614 237.505 204.161 219.954 225.806 219.954C247.455 219.954 264.998 237.505 264.998 259.148Z" fill="#322F31"/>
<path d="M200.964 238.736L198.175 236.114C196.022 238.701 194.298 241.516 192.991 244.47L196.593 245.795C197.746 243.248 199.217 240.876 200.964 238.736Z" fill="#404040"/>
<path d="M195.029 250.024L191.433 248.701C190.549 251.658 190.057 254.696 189.955 257.749L193.782 257.631C193.892 255 194.322 252.454 195.029 250.024Z" fill="#404040"/>
<path d="M210.29 230.941L208.681 227.461C206.042 228.897 203.547 230.682 201.262 232.829L204.054 235.454C205.938 233.713 208.03 232.195 210.29 230.941Z" fill="#404040"/>
<path d="M222.472 227.109L222.356 223.29C219.092 223.605 215.865 224.358 212.772 225.558L214.381 229.04C216.938 228.064 219.649 227.401 222.472 227.109Z" fill="#404040"/>
<path d="M235.923 224.576C232.969 223.708 229.92 223.228 226.864 223.142L226.98 226.966C229.615 227.061 232.167 227.475 234.603 228.168L235.923 224.576Z" fill="#404040"/>
<path d="M257.3 241.818C255.854 239.161 254.048 236.648 251.883 234.361L249.261 237.151C251.024 239.042 252.56 241.146 253.828 243.423L257.3 241.818Z" fill="#404040"/>
<path d="M257.693 255.668L261.505 255.551C261.189 252.263 260.431 249.013 259.213 245.902L255.736 247.51C256.726 250.087 257.399 252.82 257.693 255.668Z" fill="#404040"/>
<path d="M248.581 231.285C245.974 229.137 243.139 227.412 240.166 226.115L238.844 229.709C241.413 230.854 243.803 232.322 245.962 234.071L248.581 231.285Z" fill="#404040"/>
<path d="M241.223 287.108L242.83 290.585C245.507 289.14 248.032 287.337 250.343 285.171L247.552 282.546C245.642 284.311 243.519 285.847 241.223 287.108Z" fill="#404040"/>
<path d="M228.943 290.901L229.06 294.722C232.355 294.424 235.614 293.679 238.733 292.477L237.123 288.994C234.538 289.97 231.797 290.624 228.943 290.901Z" fill="#404040"/>
<path d="M250.645 279.262L253.436 281.887C255.601 279.267 257.351 276.421 258.652 273.43L255.06 272.108C253.9 274.691 252.415 277.095 250.645 279.262Z" fill="#404040"/>
<path d="M193.902 262.136L190.075 262.253C190.378 265.525 191.11 268.762 192.297 271.86L195.783 270.25C194.821 267.685 194.177 264.965 193.902 262.136Z" fill="#404040"/>
<path d="M257.835 260.175C257.739 262.838 257.317 265.415 256.61 267.873L260.205 269.195C261.089 266.209 261.575 263.138 261.657 260.057L257.835 260.175Z" fill="#404040"/>
<path d="M202.809 286.542C205.41 288.714 208.239 290.458 211.206 291.781L212.532 288.176C209.969 287.009 207.582 285.521 205.434 283.751L202.809 286.542Z" fill="#404040"/>
<path d="M194.179 275.961C195.612 278.624 197.399 281.14 199.539 283.436L202.164 280.645C200.422 278.744 198.906 276.632 197.659 274.352L194.179 275.961Z" fill="#404040"/>
<path d="M216.761 289.753L215.436 293.352C218.41 294.247 221.478 294.744 224.559 294.851L224.441 291.021C221.784 290.91 219.213 290.473 216.761 289.753Z" fill="#404040"/>
<path d="M206.34 243.793L203.709 241.318C202.295 243.083 201.089 245.02 200.126 247.094L203.512 248.34C204.289 246.717 205.243 245.196 206.34 243.793Z" fill="#404040"/>
<path d="M197.541 257.515L201.157 257.404C201.263 255.743 201.532 254.127 201.95 252.57L198.563 251.324C198.005 253.309 197.651 255.379 197.541 257.515Z" fill="#404040"/>
<path d="M209.428 240.507C210.646 239.426 211.972 238.467 213.388 237.642L211.872 234.363C210.044 235.4 208.338 236.627 206.793 238.029L209.428 240.507Z" fill="#404040"/>
<path d="M217.475 235.734C219.14 235.138 220.889 234.72 222.697 234.492L222.587 230.879C220.283 231.14 218.062 231.673 215.959 232.454L217.475 235.734Z" fill="#404040"/>
<path d="M233.303 231.703C231.312 231.157 229.236 230.82 227.096 230.724L227.207 234.332C228.874 234.425 230.496 234.683 232.058 235.09L233.303 231.703Z" fill="#404040"/>
<path d="M244.21 242.52C245.311 243.749 246.288 245.089 247.127 246.52L250.406 245.005C249.355 243.161 248.109 241.444 246.685 239.889L244.21 242.52Z" fill="#404040"/>
<path d="M253.923 255.785C253.66 253.455 253.117 251.21 252.323 249.087L249.046 250.602C249.655 252.289 250.08 254.061 250.31 255.895L253.923 255.785Z" fill="#404040"/>
<path d="M243.38 236.817C241.596 235.401 239.639 234.198 237.544 233.242L236.299 236.628C237.941 237.4 239.484 238.349 240.905 239.448L243.38 236.817Z" fill="#404040"/>
<path d="M242.177 277.492C240.932 278.595 239.576 279.571 238.126 280.407L239.642 283.687C241.505 282.641 243.241 281.395 244.813 279.97L242.177 277.492Z" fill="#404040"/>
<path d="M234.027 282.296C232.334 282.893 230.556 283.309 228.716 283.525L228.827 287.138C231.163 286.89 233.415 286.361 235.546 285.581L234.027 282.296Z" fill="#404040"/>
<path d="M251.527 270.808L248.141 269.562C247.355 271.221 246.387 272.776 245.267 274.206L247.899 276.681C249.335 274.889 250.556 272.919 251.527 270.808Z" fill="#404040"/>
<path d="M202.485 267.153C201.9 265.48 201.491 263.726 201.278 261.91L197.665 262.021C197.911 264.332 198.432 266.56 199.2 268.671L202.485 267.153Z" fill="#404040"/>
<path d="M254.077 260.29L250.469 260.401C250.374 262.095 250.108 263.742 249.689 265.327L253.076 266.574C253.634 264.56 253.979 262.458 254.077 260.29Z" fill="#404040"/>
<path d="M208.016 281.005C209.79 282.441 211.74 283.666 213.831 284.644L215.077 281.257C213.438 280.465 211.903 279.493 210.49 278.374L208.016 281.005Z" fill="#404040"/>
<path d="M207.223 275.267C206.141 274.032 205.181 272.689 204.36 271.255L201.081 272.771C202.112 274.618 203.342 276.339 204.745 277.901L207.223 275.267Z" fill="#404040"/>
<path d="M218.062 286.219C220.069 286.789 222.164 287.15 224.326 287.262L224.215 283.645C222.528 283.537 220.887 283.261 219.309 282.832L218.062 286.219Z" fill="#404040"/>
<path d="M246.159 259.148C246.159 270.39 237.049 279.501 225.806 279.501C214.566 279.501 205.453 270.39 205.453 259.148C205.453 247.909 214.566 238.794 225.806 238.794C237.049 238.794 246.159 247.909 246.159 259.148Z" fill="#F1F1F1"/>
<path d="M242.177 259.148C242.177 268.191 234.849 275.519 225.806 275.519C216.765 275.519 209.434 268.191 209.434 259.148C209.434 250.107 216.765 242.776 225.806 242.776C234.849 242.776 242.177 250.107 242.177 259.148Z" fill="#D0D1D3"/>
<path d="M234.546 259.148C234.546 263.975 230.634 267.888 225.806 267.888C220.979 267.888 217.066 263.975 217.066 259.148C217.066 254.321 220.979 250.407 225.806 250.407C230.634 250.407 234.546 254.321 234.546 259.148Z" fill="#F1F1F1"/>
<path d="M645.529 257.148C645.529 289.138 619.602 315.068 587.61 315.068C555.622 315.068 529.691 289.138 529.691 257.148C529.691 225.163 555.622 199.226 587.61 199.226C619.602 199.226 645.529 225.163 645.529 257.148Z" fill="#404040"/>
<g style="mix-blend-mode:multiply" opacity="0.21">
<path d="M631.591 257.148C631.591 281.44 611.903 301.129 587.61 301.129C563.32 301.129 543.629 281.44 543.629 257.148C543.629 232.861 563.32 213.166 587.61 213.166C611.903 213.166 631.591 232.861 631.591 257.148Z" fill="#404040"/>
</g>
<path d="M626.802 257.148C626.802 278.795 609.259 296.34 587.61 296.34C565.965 296.34 548.418 278.795 548.418 257.148C548.418 235.505 565.965 217.954 587.61 217.954C609.259 217.954 626.802 235.505 626.802 257.148Z" fill="#322F31"/>
<path d="M562.768 236.736L559.979 234.114C557.826 236.701 556.103 239.516 554.796 242.47L558.398 243.795C559.551 241.248 561.021 238.876 562.768 236.736Z" fill="#404040"/>
<path d="M556.833 248.024L553.237 246.701C552.353 249.658 551.861 252.696 551.759 255.749L555.586 255.631C555.696 253 556.126 250.454 556.833 248.024Z" fill="#404040"/>
<path d="M572.094 228.941L570.485 225.461C567.846 226.897 565.352 228.682 563.067 230.829L565.858 233.454C567.742 231.713 569.834 230.195 572.094 228.941Z" fill="#404040"/>
<path d="M584.276 225.109L584.16 221.29C580.895 221.605 577.67 222.358 574.576 223.558L576.185 227.04C578.742 226.064 581.454 225.401 584.276 225.109Z" fill="#404040"/>
<path d="M597.727 222.576C594.773 221.708 591.724 221.228 588.668 221.142L588.785 224.966C591.42 225.061 593.972 225.475 596.407 226.168L597.727 222.576Z" fill="#404040"/>
<path d="M619.105 239.818C617.659 237.161 615.853 234.648 613.688 232.361L611.065 235.151C612.828 237.042 614.364 239.146 615.632 241.423L619.105 239.818Z" fill="#404040"/>
<path d="M619.497 253.668L623.309 253.551C622.993 250.263 622.236 247.013 621.018 243.902L617.54 245.51C618.53 248.087 619.203 250.82 619.497 253.668Z" fill="#404040"/>
<path d="M610.386 229.285C607.779 227.137 604.943 225.412 601.97 224.115L600.648 227.709C603.217 228.854 605.607 230.322 607.765 232.071L610.386 229.285Z" fill="#404040"/>
<path d="M603.027 285.108L604.634 288.585C607.311 287.14 609.837 285.337 612.148 283.171L609.357 280.546C607.447 282.311 605.323 283.847 603.027 285.108Z" fill="#404040"/>
<path d="M590.747 288.901L590.865 292.722C594.161 292.424 597.418 291.679 600.537 290.477L598.928 286.994C596.343 287.97 593.601 288.624 590.747 288.901Z" fill="#404040"/>
<path d="M612.449 277.262L615.241 279.887C617.406 277.267 619.155 274.421 620.456 271.43L616.864 270.108C615.704 272.691 614.219 275.095 612.449 277.262Z" fill="#404040"/>
<path d="M555.706 260.136L551.879 260.253C552.182 263.525 552.914 266.762 554.101 269.86L557.587 268.25C556.625 265.685 555.981 262.965 555.706 260.136Z" fill="#404040"/>
<path d="M619.639 258.175C619.543 260.838 619.122 263.415 618.415 265.873L622.009 267.195C622.893 264.209 623.379 261.138 623.461 258.057L619.639 258.175Z" fill="#404040"/>
<path d="M564.613 284.542C567.214 286.714 570.043 288.458 573.01 289.781L574.336 286.176C571.773 285.009 569.386 283.521 567.238 281.751L564.613 284.542Z" fill="#404040"/>
<path d="M555.983 273.961C557.416 276.624 559.203 279.14 561.343 281.436L563.968 278.645C562.226 276.744 560.709 274.632 559.463 272.352L555.983 273.961Z" fill="#404040"/>
<path d="M578.565 287.753L577.24 291.352C580.214 292.247 583.282 292.744 586.363 292.851L586.245 289.021C583.588 288.91 581.017 288.473 578.565 287.753Z" fill="#404040"/>
<path d="M568.145 241.793L565.513 239.318C564.099 241.083 562.894 243.02 561.931 245.094L565.317 246.34C566.094 244.717 567.048 243.196 568.145 241.793Z" fill="#404040"/>
<path d="M559.345 255.515L562.961 255.404C563.067 253.743 563.337 252.127 563.755 250.57L560.367 249.324C559.809 251.309 559.455 253.379 559.345 255.515Z" fill="#404040"/>
<path d="M571.232 238.507C572.45 237.426 573.777 236.467 575.192 235.642L573.676 232.363C571.848 233.4 570.142 234.627 568.597 236.029L571.232 238.507Z" fill="#404040"/>
<path d="M579.279 233.734C580.944 233.138 582.692 232.72 584.501 232.492L584.391 228.879C582.087 229.14 579.865 229.673 577.763 230.454L579.279 233.734Z" fill="#404040"/>
<path d="M595.108 229.703C593.117 229.157 591.04 228.82 588.9 228.724L589.011 232.332C590.678 232.425 592.301 232.683 593.863 233.09L595.108 229.703Z" fill="#404040"/>
<path d="M606.015 240.52C607.115 241.749 608.092 243.089 608.931 244.52L612.21 243.005C611.159 241.161 609.912 239.444 608.489 237.889L606.015 240.52Z" fill="#404040"/>
<path d="M615.727 253.785C615.464 251.455 614.921 249.21 614.127 247.087L610.85 248.602C611.459 250.289 611.885 252.061 612.115 253.895L615.727 253.785Z" fill="#404040"/>
<path d="M605.183 234.817C603.4 233.401 601.443 232.198 599.348 231.242L598.103 234.628C599.746 235.4 601.288 236.349 602.709 237.448L605.183 234.817Z" fill="#404040"/>
<path d="M603.981 275.492C602.736 276.595 601.38 277.571 599.93 278.407L601.446 281.687C603.309 280.641 605.044 279.395 606.616 277.97L603.981 275.492Z" fill="#404040"/>
<path d="M595.831 280.296C594.138 280.893 592.36 281.309 590.52 281.525L590.631 285.138C592.967 284.89 595.219 284.361 597.35 283.581L595.831 280.296Z" fill="#404040"/>
<path d="M613.331 268.808L609.945 267.562C609.159 269.221 608.191 270.776 607.071 272.206L609.703 274.681C611.139 272.889 612.36 270.919 613.331 268.808Z" fill="#404040"/>
<path d="M564.29 265.153C563.705 263.48 563.296 261.726 563.082 259.91L559.469 260.021C559.714 262.332 560.236 264.56 561.004 266.671L564.29 265.153Z" fill="#404040"/>
<path d="M615.881 258.29L612.273 258.401C612.178 260.095 611.912 261.742 611.493 263.327L614.88 264.574C615.439 262.56 615.783 260.458 615.881 258.29Z" fill="#404040"/>
<path d="M569.82 279.005C571.594 280.441 573.545 281.666 575.636 282.644L576.882 279.257C575.242 278.465 573.707 277.493 572.294 276.374L569.82 279.005Z" fill="#404040"/>
<path d="M569.027 273.267C567.945 272.032 566.985 270.689 566.164 269.255L562.885 270.771C563.916 272.618 565.146 274.339 566.549 275.901L569.027 273.267Z" fill="#404040"/>
<path d="M579.866 284.219C581.873 284.789 583.968 285.15 586.13 285.262L586.019 281.645C584.332 281.537 582.691 281.261 581.113 280.832L579.866 284.219Z" fill="#404040"/>
<path d="M607.963 257.148C607.963 268.39 598.852 277.501 587.61 277.501C576.37 277.501 567.257 268.39 567.257 257.148C567.257 245.909 576.37 236.794 587.61 236.794C598.852 236.794 607.963 245.909 607.963 257.148Z" fill="#F1F1F1"/>
<path d="M603.981 257.148C603.981 266.191 596.653 273.519 587.61 273.519C578.568 273.519 571.239 266.191 571.239 257.148C571.239 248.107 578.568 240.776 587.61 240.776C596.653 240.776 603.981 248.107 603.981 257.148Z" fill="#D0D1D3"/>
<path d="M596.35 257.148C596.35 261.975 592.438 265.888 587.61 265.888C582.783 265.888 578.87 261.975 578.87 257.148C578.87 252.321 582.783 248.407 587.61 248.407C592.438 248.407 596.35 252.321 596.35 257.148Z" fill="#F1F1F1"/>
</svg>
