<svg width="850" height="367" viewBox="0 0 850 367" fill="none" xmlns="http://www.w3.org/2000/svg">
<path d="M0 316.5L628 319.5L858 312.5" fill="#404040"/>
<path d="M644.313 154.062C643.473 150.83 640.555 148.574 637.216 148.574L473.266 141.826C468.778 141.642 464.993 138.422 464.091 134.021L452.519 77.548C451.433 71.32 446.027 66.776 439.706 66.776L206.956 55.625C189.129 55.625 174.193 69.112 172.381 86.846L166.823 143.708C157.783 143.957 150.285 150.879 149.371 159.929L135.937 271.987H522.425L552.545 225.035C576.464 184.727 615.917 192.889 615.917 192.889C628.308 195.092 638.377 199.29 646.565 204.534L644.313 154.062Z" fill="#7D8F69"/>
<path d="M310.698 287.844H144.788C144.056 287.844 143.463 287.248 143.463 286.516V282.13C143.463 281.399 144.056 280.804 144.788 280.804H310.698C311.431 280.804 312.025 281.399 312.025 282.13V286.516C312.025 287.248 311.431 287.844 310.698 287.844Z" fill="#33333B"/>
<path d="M407.127 290.316H201.628C198.839 290.316 196.578 288.054 196.578 285.266V274.52C196.578 271.731 198.839 269.47 201.628 269.47H407.127C409.916 269.47 412.178 271.731 412.178 274.52V285.266C412.178 288.054 409.916 290.316 407.127 290.316Z" fill="#002532"/>
<path d="M370.276 167.974C369.41 168.291 368.472 168.351 367.55 168.408C362.435 168.719 357.325 169.036 352.217 169.432C348.444 169.724 344.672 170.016 340.899 170.308C339.187 170.441 337.752 168.352 337.752 165.729C337.752 163.197 339.093 161.145 340.747 161.145H353.619H362.986H366.766C368.149 161.145 369.851 160.941 371.099 161.678C373.522 163.108 372.806 166.986 370.368 167.939C370.338 167.951 370.306 167.963 370.276 167.974Z" fill="#404040"/>
<path d="M367.557 164.613C366.846 164.792 366.075 164.827 365.318 164.859C361.117 165.035 356.92 165.215 352.725 165.44C349.626 165.606 346.528 165.771 343.429 165.937C342.024 166.012 340.845 164.828 340.845 163.341C340.845 161.905 341.946 160.741 343.305 160.741H353.876H361.57H364.674C365.81 160.741 367.208 160.625 368.233 161.043C370.223 161.855 369.636 164.051 367.633 164.592C367.608 164.599 367.582 164.606 367.557 164.613Z" fill="#D0D1D3"/>
<path d="M347.784 164.626C347.784 167.11 345.77 169.125 343.285 169.125C340.801 169.125 338.786 167.11 338.786 164.626C338.786 162.141 340.801 160.127 343.285 160.127C345.77 160.127 347.784 162.141 347.784 164.626Z" fill="#F1F1F1"/>
<path d="M533.87 278.096H671.98L668.704 242.192L638.897 204.997L572.862 198.464L533.87 231.639V278.096Z" fill="#343334"/>
<path d="M164.114 278.096H302.224L298.948 242.192L269.141 204.997L203.106 198.464L164.114 231.639V278.096Z" fill="#343334"/>
<path d="M693.633 281.081L670.572 284.021C668.492 284.021 666.806 282.335 666.806 280.255V258.373C666.806 256.293 668.492 254.606 670.572 254.606H693.633C695.713 254.606 697.4 256.293 697.4 258.373V277.313C697.4 279.393 695.713 281.081 693.633 281.081Z" fill="#D0D1D3"/>
<path d="M666.807 272.171V280.254C666.807 282.334 668.494 284.021 670.574 284.021L693.633 281.08C695.714 281.08 697.4 279.394 697.4 277.314V272.171H666.807Z" fill="#404040"/>
<path d="M628.5 183.442H628.499L626.788 184.431C622.802 186.733 622.802 192.487 626.788 194.789L641.762 203.434L659.548 213.703C662.285 215.283 665.707 213.308 665.707 210.147V189.61V172.356C665.707 171.01 664.554 169.957 663.214 170.077C651.225 171.146 635.778 179.315 630.431 182.327L628.5 183.442Z" fill="#BABDBE"/>
<path d="M658.394 213.036L659.548 213.703C662.286 215.283 665.706 213.307 665.706 210.146V189.61V172.356C665.706 171.013 664.557 169.957 663.219 170.077C661.66 170.215 660.041 170.474 658.394 170.827V213.036Z" fill="#D0D1D3"/>
<path d="M482.302 178.961H486.776V156.437H482.302V178.961ZM10.685 -50.326H810.685V449.674H10.685V-50.326ZM10.685 449.674H810.685V-50.326H10.685V449.674Z" fill="#404040"/>
<path d="M490.172 157.484V177.914C490.172 178.492 489.703 178.962 489.125 178.962H486.776V156.437H489.125C489.703 156.437 490.172 156.906 490.172 157.484Z" fill="white"/>
<path d="M496.218 178.961H500.693V156.437H496.218V178.961ZM10.685 -50.326H810.685V449.674H10.685V-50.326ZM10.685 449.674H810.685V-50.326H10.685V449.674Z" fill="#404040"/>
<path d="M504.087 157.484V177.914C504.087 178.492 503.618 178.962 503.04 178.962H500.692V156.437H503.04C503.618 156.437 504.087 156.906 504.087 157.484Z" fill="white"/>
<path d="M510.135 178.961H514.609V156.437H510.135V178.961ZM10.685 -50.326H810.685V449.674H10.685V-50.326ZM10.685 449.674H810.685V-50.326H10.685V449.674Z" fill="#404040"/>
<path d="M518.005 157.484V177.914C518.005 178.492 517.536 178.962 516.958 178.962H514.61V156.437H516.958C517.536 156.437 518.005 156.906 518.005 157.484Z" fill="white"/>
<path d="M524.143 178.961H528.617V156.437H524.143V178.961ZM10.685 -50.326H810.685V449.674H10.685V-50.326ZM10.685 449.674H810.685V-50.326H10.685V449.674Z" fill="#404040"/>
<path d="M532.013 157.484V177.914C532.013 178.492 531.544 178.962 530.966 178.962H528.617V156.437H530.966C531.544 156.437 532.013 156.906 532.013 157.484Z" fill="white"/>
<path d="M149.371 159.928L135.937 271.986H155.489L166.824 143.708C157.783 143.957 150.286 150.878 149.371 159.928Z" fill="#404040"/>
<path d="M446.927 129.776L437.896 82.126C437.498 80.028 435.71 78.48 433.576 78.384L340.431 74.219C337.809 74.102 335.62 76.195 335.62 78.819V137.13C335.62 139.672 337.682 141.734 340.225 141.734H437.023C443.343 141.734 448.104 135.986 446.927 129.776Z" fill="#3C3337"/>
<path d="M233.272 141.734H317.275C320.178 141.734 322.53 139.381 322.53 136.48V79.256C322.53 76.355 320.178 74.004 317.275 74.004H226.326C223.424 74.004 221.072 76.355 221.072 79.256V129.535C221.072 136.273 226.535 141.734 233.272 141.734Z" fill="#3C3337"/>
<path d="M458.076 140.074L444.151 78.54C443.333 74.927 440.178 72.275 436.479 72.09L337.513 67.147C335.226 67.037 333.047 67.84 331.386 69.421C329.724 71.002 328.81 73.134 328.81 75.427V245.939C328.81 250.51 332.529 254.229 337.1 254.229H449.991C454.562 254.229 458.281 250.51 458.281 245.939V141.903C458.281 141.289 458.212 140.673 458.076 140.074ZM455.803 245.939C455.803 249.143 453.196 251.751 449.991 251.751H337.1C333.895 251.751 331.288 249.143 331.288 245.939V75.427C331.288 73.82 331.929 72.325 333.094 71.216C334.186 70.177 335.596 69.614 337.091 69.614C337.19 69.614 337.29 69.617 337.39 69.622L436.356 74.565C438.949 74.694 441.16 76.554 441.734 79.087L455.659 140.621C455.755 141.041 455.803 141.473 455.803 141.903V245.939Z" fill="#404040"/>
<path d="M446.926 129.777L437.895 82.126C437.498 80.028 435.71 78.48 433.576 78.384L340.43 74.219C340.36 74.216 340.29 74.214 340.221 74.214C337.693 74.214 335.619 76.265 335.619 78.819V137.13C335.619 139.674 337.681 141.734 340.225 141.734H437.022C443.342 141.734 448.103 135.987 446.926 129.777ZM442.4 136.108C441.069 137.715 439.109 138.638 437.022 138.638H340.225C339.393 138.638 338.717 137.962 338.717 137.13V78.819C338.717 77.987 339.391 77.311 340.221 77.311C340.244 77.311 340.268 77.313 340.292 77.314L433.438 81.479C434.139 81.51 434.721 82.013 434.852 82.703L443.883 130.354C444.272 132.404 443.731 134.501 442.4 136.108Z" fill="#404040"/>
<path d="M316.829 74.003H226.774C223.625 74.003 221.073 76.556 221.073 79.704V128.497C221.073 135.808 227 141.735 234.311 141.735H316.829C319.978 141.735 322.531 139.182 322.531 136.033V79.704C322.531 76.556 319.978 74.003 316.829 74.003ZM319.433 136.033C319.433 137.469 318.265 138.637 316.829 138.637H234.311C228.72 138.637 224.17 134.089 224.17 128.497V79.704C224.17 78.269 225.338 77.101 226.774 77.101H316.829C318.265 77.101 319.433 78.269 319.433 79.704V136.033Z" fill="#404040"/>
<path d="M143.679 207.172L135.936 271.758H522.425L552.545 224.806C556.933 217.411 561.844 211.653 566.938 207.172H143.679Z" fill="#404040"/>
<path d="M177.362 208.614H167.017C164.623 208.614 162.683 210.554 162.683 212.948V236.128L177.362 208.614Z" fill="#B42032"/>
<path d="M164.294 214.282C164.294 211.888 166.234 209.948 168.628 209.948H176.649L177.36 208.614H167.015C164.622 208.614 162.681 210.554 162.681 212.948V236.128L164.294 233.104V214.282Z" fill="#404040"/>
<path d="M210.17 201.206H213.461V151.323H210.17V201.206ZM10.685 -50.326H810.685V449.674H10.685V-50.326ZM10.685 449.674H810.685V-50.326H10.685V449.674Z" fill="#404040"/>
<path d="M453.752 269.774C453.752 269.774 493.162 268.297 511.768 239.653C520.015 226.955 528.272 215.107 539.879 205.073C563.374 184.761 594.992 176.641 624.437 188.128C644.378 195.908 659.801 211.384 668.28 230.981C672.738 241.284 675.332 252.319 676.663 263.446C676.769 264.326 676.019 265.084 675.14 264.971C672.476 264.632 667.399 263.065 665.132 256.19C659.603 239.428 648.021 224.645 632.127 216.594C609.228 204.995 580.162 207.955 560.549 224.664C547.695 235.613 540.9 251.523 538.64 268.003C538.64 268.003 537.754 282.325 521.955 282.325H304.993C304.993 282.325 298.216 281.488 298.216 274.253C298.216 267.512 296.453 260.434 294.386 254.084C289.925 240.37 281.624 227.91 269.455 219.908C251.384 208.027 228.908 206.574 209.11 214.673C192.622 221.42 179.565 234.148 172.785 250.68C170.951 255.15 169.571 259.798 168.573 264.524C167.604 269.115 163.239 272.214 158.603 271.484C158.53 271.472 158.457 271.461 158.383 271.448C158.383 271.448 145.73 269.448 134.646 265.774C132.864 265.183 131.304 264.004 130.392 262.363C128.565 259.076 131.272 258.002 133.875 257.627C140.042 256.74 145.385 251.606 149.373 247.145C154.022 241.946 157.681 235.964 161.262 230.007C169.425 216.431 180.341 201.974 194.241 193.63C209.141 184.686 227.388 180.783 244.686 181.378C277.047 182.491 301.694 207.245 314.564 235.269C318.355 243.526 321.218 252.192 323.366 261.013C323.366 261.013 324.843 269.283 329.667 269.283L453.752 269.774Z" fill="#322F31"/>
<path d="M456.846 284.281H330.157C329.412 284.281 328.81 283.677 328.81 282.933V268.935C328.81 268.191 329.412 267.589 330.157 267.589H456.846C457.59 267.589 458.192 268.191 458.192 268.935V282.933C458.192 283.677 457.59 284.281 456.846 284.281Z" fill="#D0D1D3"/>
<path d="M328.809 278.472V282.546C328.809 283.504 329.585 284.282 330.543 284.282H456.456C457.414 284.282 458.191 283.504 458.191 282.546V278.472H328.809Z" fill="#404040"/>
<path d="M328.809 275.935H458.192V273.838H328.809V275.935ZM10.685 -50.326H810.685V449.674H10.685V-50.326ZM10.685 449.674H810.685V-50.326H10.685V449.674Z" fill="#404040"/>
<path d="M328.809 271.707H458.192V269.61H328.809V271.707ZM10.685 -50.326H810.685V449.674H10.685V-50.326ZM10.685 449.674H810.685V-50.326H10.685V449.674Z" fill="#404040"/>
<path d="M164.936 284.02L131.678 278.762C129.598 278.762 127.911 277.076 127.911 274.996V258.373C127.911 256.292 129.598 254.606 131.678 254.606H164.936C167.016 254.606 168.703 256.292 168.703 258.373V280.254C168.703 282.334 167.016 284.02 164.936 284.02Z" fill="#D0D1D3"/>
<path d="M127.911 272.171V274.995C127.911 277.075 129.598 278.763 131.678 278.763L164.936 284.021C167.016 284.021 168.703 282.334 168.703 280.254V272.171H127.911Z" fill="#404040"/>
<path d="M293.725 259.148C293.725 291.138 267.799 317.068 235.806 317.068C203.819 317.068 177.886 291.138 177.886 259.148C177.886 227.163 203.819 201.226 235.806 201.226C267.799 201.226 293.725 227.163 293.725 259.148Z" fill="#404040"/>
<g style="mix-blend-mode:multiply" opacity="0.21">
<path d="M279.787 259.148C279.787 283.44 260.099 303.129 235.806 303.129C211.517 303.129 191.825 283.44 191.825 259.148C191.825 234.861 211.517 215.166 235.806 215.166C260.099 215.166 279.787 234.861 279.787 259.148Z" fill="#404040"/>
</g>
<path d="M274.998 259.148C274.998 280.795 257.455 298.34 235.806 298.34C214.161 298.34 196.614 280.795 196.614 259.148C196.614 237.505 214.161 219.954 235.806 219.954C257.455 219.954 274.998 237.505 274.998 259.148Z" fill="#322F31"/>
<path d="M210.964 238.736L208.175 236.114C206.022 238.701 204.298 241.516 202.991 244.47L206.593 245.795C207.746 243.248 209.217 240.876 210.964 238.736Z" fill="#404040"/>
<path d="M205.029 250.024L201.433 248.701C200.549 251.658 200.057 254.696 199.955 257.749L203.782 257.631C203.892 255 204.322 252.454 205.029 250.024Z" fill="#404040"/>
<path d="M220.29 230.941L218.681 227.461C216.042 228.897 213.547 230.682 211.262 232.829L214.054 235.454C215.938 233.713 218.03 232.195 220.29 230.941Z" fill="#404040"/>
<path d="M232.472 227.109L232.356 223.29C229.092 223.605 225.865 224.358 222.772 225.558L224.381 229.04C226.938 228.064 229.649 227.401 232.472 227.109Z" fill="#404040"/>
<path d="M245.923 224.576C242.969 223.708 239.92 223.228 236.864 223.142L236.98 226.966C239.615 227.061 242.167 227.475 244.603 228.168L245.923 224.576Z" fill="#404040"/>
<path d="M267.3 241.818C265.854 239.161 264.048 236.648 261.883 234.361L259.261 237.151C261.024 239.042 262.56 241.146 263.828 243.423L267.3 241.818Z" fill="#404040"/>
<path d="M267.693 255.668L271.505 255.551C271.189 252.263 270.431 249.013 269.213 245.902L265.736 247.51C266.726 250.087 267.399 252.82 267.693 255.668Z" fill="#404040"/>
<path d="M258.581 231.285C255.974 229.137 253.139 227.412 250.166 226.115L248.844 229.709C251.413 230.854 253.803 232.322 255.962 234.071L258.581 231.285Z" fill="#404040"/>
<path d="M251.223 287.108L252.83 290.585C255.507 289.14 258.032 287.337 260.343 285.171L257.552 282.546C255.642 284.311 253.519 285.847 251.223 287.108Z" fill="#404040"/>
<path d="M238.943 290.901L239.06 294.722C242.355 294.424 245.614 293.679 248.733 292.477L247.123 288.994C244.538 289.97 241.797 290.624 238.943 290.901Z" fill="#404040"/>
<path d="M260.645 279.262L263.436 281.887C265.601 279.267 267.351 276.421 268.652 273.43L265.06 272.108C263.9 274.691 262.415 277.095 260.645 279.262Z" fill="#404040"/>
<path d="M203.902 262.136L200.075 262.253C200.378 265.525 201.11 268.762 202.297 271.86L205.783 270.25C204.821 267.685 204.177 264.965 203.902 262.136Z" fill="#404040"/>
<path d="M267.835 260.175C267.739 262.838 267.317 265.415 266.61 267.873L270.205 269.195C271.089 266.209 271.575 263.138 271.657 260.057L267.835 260.175Z" fill="#404040"/>
<path d="M212.809 286.542C215.41 288.714 218.239 290.458 221.206 291.781L222.532 288.176C219.969 287.009 217.582 285.521 215.434 283.751L212.809 286.542Z" fill="#404040"/>
<path d="M204.179 275.961C205.612 278.624 207.399 281.14 209.539 283.436L212.164 280.645C210.422 278.744 208.906 276.632 207.659 274.352L204.179 275.961Z" fill="#404040"/>
<path d="M226.761 289.753L225.436 293.352C228.41 294.247 231.478 294.744 234.559 294.851L234.441 291.021C231.784 290.91 229.213 290.473 226.761 289.753Z" fill="#404040"/>
<path d="M216.34 243.793L213.709 241.318C212.295 243.083 211.089 245.02 210.126 247.094L213.512 248.34C214.289 246.717 215.243 245.196 216.34 243.793Z" fill="#404040"/>
<path d="M207.541 257.515L211.157 257.404C211.263 255.743 211.532 254.127 211.95 252.57L208.563 251.324C208.005 253.309 207.651 255.379 207.541 257.515Z" fill="#404040"/>
<path d="M219.428 240.507C220.646 239.426 221.972 238.467 223.388 237.642L221.872 234.363C220.044 235.4 218.338 236.627 216.793 238.029L219.428 240.507Z" fill="#404040"/>
<path d="M227.475 235.734C229.14 235.138 230.889 234.72 232.697 234.492L232.587 230.879C230.283 231.14 228.062 231.673 225.959 232.454L227.475 235.734Z" fill="#404040"/>
<path d="M243.303 231.703C241.312 231.157 239.236 230.82 237.096 230.724L237.207 234.332C238.874 234.425 240.496 234.683 242.058 235.09L243.303 231.703Z" fill="#404040"/>
<path d="M254.21 242.52C255.311 243.749 256.288 245.089 257.127 246.52L260.406 245.005C259.355 243.161 258.109 241.444 256.685 239.889L254.21 242.52Z" fill="#404040"/>
<path d="M263.923 255.785C263.66 253.455 263.117 251.21 262.323 249.087L259.046 250.602C259.655 252.289 260.08 254.061 260.31 255.895L263.923 255.785Z" fill="#404040"/>
<path d="M253.38 236.817C251.596 235.401 249.639 234.198 247.544 233.242L246.299 236.628C247.941 237.4 249.484 238.349 250.905 239.448L253.38 236.817Z" fill="#404040"/>
<path d="M252.177 277.492C250.932 278.595 249.576 279.571 248.126 280.407L249.642 283.687C251.505 282.641 253.241 281.395 254.813 279.97L252.177 277.492Z" fill="#404040"/>
<path d="M244.027 282.296C242.334 282.893 240.556 283.309 238.716 283.525L238.827 287.138C241.163 286.89 243.415 286.361 245.546 285.581L244.027 282.296Z" fill="#404040"/>
<path d="M261.527 270.808L258.141 269.562C257.355 271.221 256.387 272.776 255.267 274.206L257.899 276.681C259.335 274.889 260.556 272.919 261.527 270.808Z" fill="#404040"/>
<path d="M212.485 267.153C211.9 265.48 211.491 263.726 211.278 261.91L207.665 262.021C207.911 264.332 208.432 266.56 209.2 268.671L212.485 267.153Z" fill="#404040"/>
<path d="M264.077 260.29L260.469 260.401C260.374 262.095 260.108 263.742 259.689 265.327L263.076 266.574C263.634 264.56 263.979 262.458 264.077 260.29Z" fill="#404040"/>
<path d="M218.016 281.005C219.79 282.441 221.74 283.666 223.831 284.644L225.077 281.257C223.438 280.465 221.903 279.493 220.49 278.374L218.016 281.005Z" fill="#404040"/>
<path d="M217.223 275.267C216.141 274.032 215.181 272.689 214.36 271.255L211.081 272.771C212.112 274.618 213.342 276.339 214.745 277.901L217.223 275.267Z" fill="#404040"/>
<path d="M228.062 286.219C230.069 286.789 232.164 287.15 234.326 287.262L234.215 283.645C232.528 283.537 230.887 283.261 229.309 282.832L228.062 286.219Z" fill="#404040"/>
<path d="M256.159 259.148C256.159 270.39 247.049 279.501 235.806 279.501C224.566 279.501 215.453 270.39 215.453 259.148C215.453 247.909 224.566 238.794 235.806 238.794C247.049 238.794 256.159 247.909 256.159 259.148Z" fill="#F1F1F1"/>
<path d="M252.177 259.148C252.177 268.191 244.849 275.519 235.806 275.519C226.765 275.519 219.434 268.191 219.434 259.148C219.434 250.107 226.765 242.776 235.806 242.776C244.849 242.776 252.177 250.107 252.177 259.148Z" fill="#D0D1D3"/>
<path d="M244.546 259.148C244.546 263.975 240.634 267.888 235.806 267.888C230.979 267.888 227.066 263.975 227.066 259.148C227.066 254.321 230.979 250.407 235.806 250.407C240.634 250.407 244.546 254.321 244.546 259.148Z" fill="#F1F1F1"/>
<path d="M655.529 257.148C655.529 289.138 629.602 315.068 597.61 315.068C565.622 315.068 539.691 289.138 539.691 257.148C539.691 225.163 565.622 199.226 597.61 199.226C629.602 199.226 655.529 225.163 655.529 257.148Z" fill="#404040"/>
<g style="mix-blend-mode:multiply" opacity="0.21">
<path d="M641.591 257.148C641.591 281.44 621.903 301.129 597.61 301.129C573.32 301.129 553.629 281.44 553.629 257.148C553.629 232.861 573.32 213.166 597.61 213.166C621.903 213.166 641.591 232.861 641.591 257.148Z" fill="#404040"/>
</g>
<path d="M636.802 257.148C636.802 278.795 619.259 296.34 597.61 296.34C575.965 296.34 558.418 278.795 558.418 257.148C558.418 235.505 575.965 217.954 597.61 217.954C619.259 217.954 636.802 235.505 636.802 257.148Z" fill="#322F31"/>
<path d="M572.768 236.736L569.979 234.114C567.826 236.701 566.103 239.516 564.796 242.47L568.398 243.795C569.551 241.248 571.021 238.876 572.768 236.736Z" fill="#404040"/>
<path d="M566.833 248.024L563.237 246.701C562.353 249.658 561.861 252.696 561.759 255.749L565.586 255.631C565.696 253 566.126 250.454 566.833 248.024Z" fill="#404040"/>
<path d="M582.094 228.941L580.485 225.461C577.846 226.897 575.352 228.682 573.067 230.829L575.858 233.454C577.742 231.713 579.834 230.195 582.094 228.941Z" fill="#404040"/>
<path d="M594.276 225.109L594.16 221.29C590.895 221.605 587.67 222.358 584.576 223.558L586.185 227.04C588.742 226.064 591.454 225.401 594.276 225.109Z" fill="#404040"/>
<path d="M607.727 222.576C604.773 221.708 601.724 221.228 598.668 221.142L598.785 224.966C601.42 225.061 603.972 225.475 606.407 226.168L607.727 222.576Z" fill="#404040"/>
<path d="M629.105 239.818C627.659 237.161 625.853 234.648 623.688 232.361L621.065 235.151C622.828 237.042 624.364 239.146 625.632 241.423L629.105 239.818Z" fill="#404040"/>
<path d="M629.497 253.668L633.309 253.551C632.993 250.263 632.236 247.013 631.018 243.902L627.54 245.51C628.53 248.087 629.203 250.82 629.497 253.668Z" fill="#404040"/>
<path d="M620.386 229.285C617.779 227.137 614.943 225.412 611.97 224.115L610.648 227.709C613.217 228.854 615.607 230.322 617.765 232.071L620.386 229.285Z" fill="#404040"/>
<path d="M613.027 285.108L614.634 288.585C617.311 287.14 619.837 285.337 622.148 283.171L619.357 280.546C617.447 282.311 615.323 283.847 613.027 285.108Z" fill="#404040"/>
<path d="M600.747 288.901L600.865 292.722C604.161 292.424 607.418 291.679 610.537 290.477L608.928 286.994C606.343 287.97 603.601 288.624 600.747 288.901Z" fill="#404040"/>
<path d="M622.449 277.262L625.241 279.887C627.406 277.267 629.155 274.421 630.456 271.43L626.864 270.108C625.704 272.691 624.219 275.095 622.449 277.262Z" fill="#404040"/>
<path d="M565.706 260.136L561.879 260.253C562.182 263.525 562.914 266.762 564.101 269.86L567.587 268.25C566.625 265.685 565.981 262.965 565.706 260.136Z" fill="#404040"/>
<path d="M629.639 258.175C629.543 260.838 629.122 263.415 628.415 265.873L632.009 267.195C632.893 264.209 633.379 261.138 633.461 258.057L629.639 258.175Z" fill="#404040"/>
<path d="M574.613 284.542C577.214 286.714 580.043 288.458 583.01 289.781L584.336 286.176C581.773 285.009 579.386 283.521 577.238 281.751L574.613 284.542Z" fill="#404040"/>
<path d="M565.983 273.961C567.416 276.624 569.203 279.14 571.343 281.436L573.968 278.645C572.226 276.744 570.709 274.632 569.463 272.352L565.983 273.961Z" fill="#404040"/>
<path d="M588.565 287.753L587.24 291.352C590.214 292.247 593.282 292.744 596.363 292.851L596.245 289.021C593.588 288.91 591.017 288.473 588.565 287.753Z" fill="#404040"/>
<path d="M578.145 241.793L575.513 239.318C574.099 241.083 572.894 243.02 571.931 245.094L575.317 246.34C576.094 244.717 577.048 243.196 578.145 241.793Z" fill="#404040"/>
<path d="M569.345 255.515L572.961 255.404C573.067 253.743 573.337 252.127 573.755 250.57L570.367 249.324C569.809 251.309 569.455 253.379 569.345 255.515Z" fill="#404040"/>
<path d="M581.232 238.507C582.45 237.426 583.777 236.467 585.192 235.642L583.676 232.363C581.848 233.4 580.142 234.627 578.597 236.029L581.232 238.507Z" fill="#404040"/>
<path d="M589.279 233.734C590.944 233.138 592.692 232.72 594.501 232.492L594.391 228.879C592.087 229.14 589.865 229.673 587.763 230.454L589.279 233.734Z" fill="#404040"/>
<path d="M605.108 229.703C603.117 229.157 601.04 228.82 598.9 228.724L599.011 232.332C600.678 232.425 602.301 232.683 603.863 233.09L605.108 229.703Z" fill="#404040"/>
<path d="M616.015 240.52C617.115 241.749 618.092 243.089 618.931 244.52L622.21 243.005C621.159 241.161 619.912 239.444 618.489 237.889L616.015 240.52Z" fill="#404040"/>
<path d="M625.727 253.785C625.464 251.455 624.921 249.21 624.127 247.087L620.85 248.602C621.459 250.289 621.885 252.061 622.115 253.895L625.727 253.785Z" fill="#404040"/>
<path d="M615.183 234.817C613.4 233.401 611.443 232.198 609.348 231.242L608.103 234.628C609.746 235.4 611.288 236.349 612.709 237.448L615.183 234.817Z" fill="#404040"/>
<path d="M613.981 275.492C612.736 276.595 611.38 277.571 609.93 278.407L611.446 281.687C613.309 280.641 615.044 279.395 616.616 277.97L613.981 275.492Z" fill="#404040"/>
<path d="M605.831 280.296C604.138 280.893 602.36 281.309 600.52 281.525L600.631 285.138C602.967 284.89 605.219 284.361 607.35 283.581L605.831 280.296Z" fill="#404040"/>
<path d="M623.331 268.808L619.945 267.562C619.159 269.221 618.191 270.776 617.071 272.206L619.703 274.681C621.139 272.889 622.36 270.919 623.331 268.808Z" fill="#404040"/>
<path d="M574.29 265.153C573.705 263.48 573.296 261.726 573.082 259.91L569.469 260.021C569.714 262.332 570.236 264.56 571.004 266.671L574.29 265.153Z" fill="#404040"/>
<path d="M625.881 258.29L622.273 258.401C622.178 260.095 621.912 261.742 621.493 263.327L624.88 264.574C625.439 262.56 625.783 260.458 625.881 258.29Z" fill="#404040"/>
<path d="M579.82 279.005C581.594 280.441 583.545 281.666 585.636 282.644L586.882 279.257C585.242 278.465 583.707 277.493 582.294 276.374L579.82 279.005Z" fill="#404040"/>
<path d="M579.027 273.267C577.945 272.032 576.985 270.689 576.164 269.255L572.885 270.771C573.916 272.618 575.146 274.339 576.549 275.901L579.027 273.267Z" fill="#404040"/>
<path d="M589.866 284.219C591.873 284.789 593.968 285.15 596.13 285.262L596.019 281.645C594.332 281.537 592.691 281.261 591.113 280.832L589.866 284.219Z" fill="#404040"/>
<path d="M617.963 257.148C617.963 268.39 608.852 277.501 597.61 277.501C586.37 277.501 577.257 268.39 577.257 257.148C577.257 245.909 586.37 236.794 597.61 236.794C608.852 236.794 617.963 245.909 617.963 257.148Z" fill="#F1F1F1"/>
<path d="M613.981 257.148C613.981 266.191 606.653 273.519 597.61 273.519C588.568 273.519 581.239 266.191 581.239 257.148C581.239 248.107 588.568 240.776 597.61 240.776C606.653 240.776 613.981 248.107 613.981 257.148Z" fill="#D0D1D3"/>
<path d="M606.35 257.148C606.35 261.975 602.438 265.888 597.61 265.888C592.783 265.888 588.87 261.975 588.87 257.148C588.87 252.321 592.783 248.407 597.61 248.407C602.438 248.407 606.35 252.321 606.35 257.148Z" fill="#F1F1F1"/>
</svg>
